<svg xmlns="http://www.w3.org/2000/svg" xmlns:xlink="http://www.w3.org/1999/xlink" width="191.983" height="258.263" viewBox="0 0 191.983 258.263">
  <defs>
    <style>
      .cls-1 {
        fill: #fafbfb;
      }

      .cls-2 {
        fill: #dc4f4f;
      }

      .cls-3 {
        fill: #d29b6e;
      }

      .cls-4 {
        fill: #facfcf;
      }

      .cls-5 {
        opacity: 0;
      }

      .cls-6 {
        fill: #a0d2f0;
      }

      .cls-7 {
        opacity: 0.872;
      }

      .cls-8 {
        fill: #694b4b;
      }

      .cls-9 {
        fill: #f0c087;
      }

      .cls-10 {
        filter: url(#Path_374);
      }
    </style>
    <filter id="Path_374" x="0" y="0" width="191.983" height="258.263" filterUnits="userSpaceOnUse">
      <feOffset dy="3" input="SourceAlpha"/>
      <feGaussianBlur stdDeviation="3" result="blur"/>
      <feFlood flood-opacity="0.2"/>
      <feComposite operator="in" in2="blur"/>
      <feComposite in="SourceGraphic"/>
    </filter>
  </defs>
  <g id="curriculum" transform="translate(-61.621 6)">
    <g class="cls-10" transform="matrix(1, 0, 0, 1, 61.62, -6)">
      <path id="Path_374-2" data-name="Path 374" class="cls-1" d="M236.32,240.263H78.906a8.285,8.285,0,0,1-8.285-8.285V8.285A8.285,8.285,0,0,1,78.906,0H236.32A8.285,8.285,0,0,1,244.6,8.285V231.979A8.285,8.285,0,0,1,236.32,240.263Z" transform="translate(-61.62 6)"/>
    </g>
    <path id="Path_375" data-name="Path 375" class="cls-2" d="M159.783,109.875h-49.71a4.143,4.143,0,0,1-4.143-4.143V39.453a4.143,4.143,0,0,1,4.143-4.143h49.71a4.143,4.143,0,0,1,4.143,4.143v66.279A4.143,4.143,0,0,1,159.783,109.875Z" transform="translate(-18.74 -18.74)"/>
    <path id="Path_376" data-name="Path 376" class="cls-3" d="M166.4,149.58v-8.931H146.123v8.931l10.137,10.207Z" transform="translate(-40.072 -74.647)"/>
    <path id="Path_377" data-name="Path 377" class="cls-4" d="M160.486,159.021l-13.8-3.1a2.292,2.292,0,0,1-.58-.222l-11.178,6.215L124.186,155.4a2.255,2.255,0,0,1-1.015.523l-13.8,3.1a4.3,4.3,0,0,0-3.439,4.139v6.31a4.143,4.143,0,0,0,4.143,4.143h49.71a4.143,4.143,0,0,0,4.143-4.143v-6.31A4.3,4.3,0,0,0,160.486,159.021Z" transform="translate(-18.74 -82.478)"/>
    <g id="Group_225" data-name="Group 225" class="cls-5" transform="translate(87.191 78.047)">
      <path id="Path_378" data-name="Path 378" class="cls-6" d="M217.2,166.317l-7.227,6.188a5.209,5.209,0,0,0-1.85,3.954V179.4h5.9a4.143,4.143,0,0,0,4.143-4.143v-6.31A4.121,4.121,0,0,0,217.2,166.317Z" transform="translate(-160.169 -166.317)"/>
      <path id="Path_379" data-name="Path 379" class="cls-6" d="M114.119,172.506l-7.227-6.188a4.121,4.121,0,0,0-.961,2.635v6.31a4.143,4.143,0,0,0,4.143,4.143h5.9v-2.945A5.21,5.21,0,0,0,114.119,172.506Z" transform="translate(-105.931 -166.318)"/>
    </g>
    <path id="Path_380" data-name="Path 380" class="cls-2" d="M167.359,180.94h-5.577l.7-11.73h4.182Z" transform="translate(-48.382 -89.806)"/>
    <g id="Group_226" data-name="Group 226" class="cls-7" transform="translate(102.806 70.422)">
      <path id="Path_381" data-name="Path 381" class="cls-2" d="M142.395,150.342l10.194,8.745a38.678,38.678,0,0,0-6.378,4.143,1.467,1.467,0,0,1-2.216-.477l-4.789-10.043,1.515-2.167A1.149,1.149,0,0,1,142.395,150.342Z" transform="translate(-139.206 -150.069)"/>
      <path id="Path_382" data-name="Path 382" class="cls-2" d="M177.918,150.342l-10.194,8.745a38.677,38.677,0,0,1,6.378,4.143,1.467,1.467,0,0,0,2.216-.477l4.789-10.043-1.515-2.167A1.149,1.149,0,0,0,177.918,150.342Z" transform="translate(-154.342 -150.069)"/>
    </g>
    <path id="Path_383" data-name="Path 383" class="cls-8" d="M153.126,61.793h-8.285a12.428,12.428,0,0,0-12.428,12.428v9a8.285,8.285,0,0,0,2.427,5.858l1.716,1.716h24.855l1.716-1.716a8.284,8.284,0,0,0,2.427-5.858v-9A12.429,12.429,0,0,0,153.126,61.793Z" transform="translate(-32.796 -32.796)"/>
    <path id="Path_384" data-name="Path 384" class="cls-9" d="M140.292,98.225l.531,11.941a6.282,6.282,0,0,0,2.435,4.709l4.206,3.225a6.017,6.017,0,0,0,3.662,1.248H155.2a6.02,6.02,0,0,0,3.662-1.248l4.206-3.225a6.283,6.283,0,0,0,2.435-4.709l.531-11.941a7.577,7.577,0,0,0-7.474-8H147.768A7.577,7.577,0,0,0,140.292,98.225Z" transform="translate(-36.973 -47.887)"/>
    <path id="Path_385" data-name="Path 385" class="cls-2" d="M326.964,43.6H268.97a4.143,4.143,0,0,1-4.143-4.143h0a4.143,4.143,0,0,1,4.143-4.143h57.995a4.143,4.143,0,0,1,4.143,4.143h0A4.143,4.143,0,0,1,326.964,43.6Z" transform="translate(-103.072 -18.74)"/>
    <g id="Group_227" data-name="Group 227" transform="translate(87.191 49.709)">
      <path id="Path_386" data-name="Path 386" class="cls-2" d="M326.964,114.215H268.97a4.143,4.143,0,0,1-4.143-4.143h0a4.143,4.143,0,0,1,4.143-4.143h57.995a4.143,4.143,0,0,1,4.143,4.143h0A4.143,4.143,0,0,1,326.964,114.215Z" transform="translate(-190.263 -105.93)"/>
      <path id="Path_387" data-name="Path 387" class="cls-2" d="M326.964,184.836H268.97a4.143,4.143,0,0,1-4.143-4.143h0a4.143,4.143,0,0,1,4.143-4.143h57.995a4.143,4.143,0,0,1,4.143,4.143h0A4.143,4.143,0,0,1,326.964,184.836Z" transform="translate(-190.263 -143.411)"/>
      <path id="Path_388" data-name="Path 388" class="cls-2" d="M213.834,237.8h-33.14a4.143,4.143,0,0,1-4.143-4.143h0a4.143,4.143,0,0,1,4.143-4.143h33.14a4.143,4.143,0,0,1,4.143,4.143h0A4.143,4.143,0,0,1,213.834,237.8Z" transform="translate(-143.412 -171.521)"/>
      <path id="Path_389" data-name="Path 389" class="cls-2" d="M159.783,273.112h-49.71a4.143,4.143,0,0,1-4.143-4.143h0a4.143,4.143,0,0,1,4.143-4.143h49.71a4.143,4.143,0,0,1,4.143,4.143h0A4.143,4.143,0,0,1,159.783,273.112Z" transform="translate(-105.931 -190.262)"/>
      <path id="Path_390" data-name="Path 390" class="cls-2" d="M317.594,273.112H251.315a4.143,4.143,0,0,1-4.143-4.143h0a4.143,4.143,0,0,1,4.143-4.143h66.279a4.143,4.143,0,0,1,4.143,4.143h0A4.143,4.143,0,0,1,317.594,273.112Z" transform="translate(-180.893 -190.262)"/>
      <path id="Path_391" data-name="Path 391" class="cls-2" d="M294.91,237.8h-8.285a4.143,4.143,0,0,1-4.143-4.143h0a4.143,4.143,0,0,1,4.143-4.143h8.285a4.143,4.143,0,0,1,4.143,4.143h0A4.142,4.142,0,0,1,294.91,237.8Z" transform="translate(-199.633 -171.521)"/>
    </g>
    <path id="Path_392" data-name="Path 392" class="cls-2" d="M126.643,237.8h-16.57a4.143,4.143,0,0,1-4.143-4.143h0a4.143,4.143,0,0,1,4.143-4.143h16.57a4.143,4.143,0,0,1,4.143,4.143h0A4.143,4.143,0,0,1,126.643,237.8Z" transform="translate(-18.74 -121.812)"/>
    <g id="Group_228" data-name="Group 228" transform="translate(87.191 149.129)">
      <path id="Path_393" data-name="Path 393" class="cls-2" d="M213.834,326.077h-33.14a4.143,4.143,0,0,1-4.143-4.143h0a4.143,4.143,0,0,1,4.143-4.143h33.14a4.143,4.143,0,0,1,4.143,4.143h0A4.143,4.143,0,0,1,213.834,326.077Z" transform="translate(-143.412 -317.792)"/>
      <path id="Path_394" data-name="Path 394" class="cls-2" d="M159.783,361.388h-49.71a4.143,4.143,0,0,1-4.143-4.143h0a4.143,4.143,0,0,1,4.143-4.143h49.71a4.143,4.143,0,0,1,4.143,4.143h0A4.143,4.143,0,0,1,159.783,361.388Z" transform="translate(-105.931 -336.533)"/>
      <path id="Path_395" data-name="Path 395" class="cls-2" d="M317.594,361.388H251.315a4.143,4.143,0,0,1-4.143-4.143h0a4.143,4.143,0,0,1,4.143-4.143h66.279a4.143,4.143,0,0,1,4.143,4.143h0A4.143,4.143,0,0,1,317.594,361.388Z" transform="translate(-180.893 -336.533)"/>
      <path id="Path_396" data-name="Path 396" class="cls-2" d="M294.91,326.077h-8.285a4.143,4.143,0,0,1-4.143-4.143h0a4.143,4.143,0,0,1,4.143-4.143h8.285a4.143,4.143,0,0,1,4.143,4.143h0A4.142,4.142,0,0,1,294.91,326.077Z" transform="translate(-199.633 -317.792)"/>
    </g>
    <path id="Path_397" data-name="Path 397" class="cls-2" d="M126.643,326.077h-16.57a4.143,4.143,0,0,1-4.143-4.143h0a4.143,4.143,0,0,1,4.143-4.143h16.57a4.143,4.143,0,0,1,4.143,4.143h0A4.143,4.143,0,0,1,126.643,326.077Z" transform="translate(-18.74 -168.663)"/>
    <g id="Group_229" data-name="Group 229" transform="translate(87.191 190.553)">
      <path id="Path_398" data-name="Path 398" class="cls-2" d="M213.834,414.353h-33.14a4.143,4.143,0,0,1-4.143-4.143h0a4.143,4.143,0,0,1,4.143-4.143h33.14a4.143,4.143,0,0,1,4.143,4.143h0A4.143,4.143,0,0,1,213.834,414.353Z" transform="translate(-143.412 -406.068)"/>
      <path id="Path_399" data-name="Path 399" class="cls-2" d="M159.783,449.663h-49.71a4.143,4.143,0,0,1-4.143-4.143h0a4.143,4.143,0,0,1,4.143-4.143h49.71a4.143,4.143,0,0,1,4.143,4.143h0A4.143,4.143,0,0,1,159.783,449.663Z" transform="translate(-105.931 -424.808)"/>
      <path id="Path_400" data-name="Path 400" class="cls-2" d="M317.594,449.663H251.315a4.143,4.143,0,0,1-4.143-4.143h0a4.143,4.143,0,0,1,4.143-4.143h66.279a4.143,4.143,0,0,1,4.143,4.143h0A4.143,4.143,0,0,1,317.594,449.663Z" transform="translate(-180.893 -424.808)"/>
      <path id="Path_401" data-name="Path 401" class="cls-2" d="M294.91,414.353h-8.285a4.143,4.143,0,0,1-4.143-4.143h0a4.143,4.143,0,0,1,4.143-4.143h8.285a4.143,4.143,0,0,1,4.143,4.143h0A4.142,4.142,0,0,1,294.91,414.353Z" transform="translate(-199.633 -406.068)"/>
    </g>
    <path id="Path_402" data-name="Path 402" class="cls-2" d="M126.643,414.353h-16.57a4.143,4.143,0,0,1-4.143-4.143h0a4.143,4.143,0,0,1,4.143-4.143h16.57a4.143,4.143,0,0,1,4.143,4.143h0A4.143,4.143,0,0,1,126.643,414.353Z" transform="translate(-18.74 -215.515)"/>
    <path id="Path_403" data-name="Path 403" class="cls-2" d="M326.964,149.526H268.97a4.143,4.143,0,0,1-4.143-4.143h0a4.143,4.143,0,0,1,4.143-4.143h57.995a4.143,4.143,0,0,1,4.143,4.143h0A4.143,4.143,0,0,1,326.964,149.526Z" transform="translate(-103.072 -74.962)"/>
    <path id="Path_404" data-name="Path 404" class="cls-2" d="M326.964,78.905H268.97a4.143,4.143,0,0,1-4.143-4.143h0a4.143,4.143,0,0,1,4.143-4.143h57.995a4.143,4.143,0,0,1,4.143,4.143h0A4.143,4.143,0,0,1,326.964,78.905Z" transform="translate(-103.072 -37.481)"/>
  </g>
</svg>
