<svg xmlns="http://www.w3.org/2000/svg" xmlns:xlink="http://www.w3.org/1999/xlink" width="332.756" height="245.927" viewBox="0 0 332.756 245.927">
  <defs>
    <style>
      .cls-1 {
        fill: #e7eced;
      }

      .cls-2, .cls-4, .cls-5, .cls-6 {
        fill: #d63131;
      }

      .cls-2 {
        opacity: 0.7;
      }

      .cls-3 {
        fill: #fff;
      }

      .cls-4 {
        opacity: 0.7;
      }

      .cls-5 {
        opacity: 0.495;
      }

      .cls-7 {
        filter: url(#Path_361);
      }
    </style>
    <filter id="Path_361" x="0" y="0" width="332.756" height="245.927" filterUnits="userSpaceOnUse">
      <feOffset dy="3" input="SourceAlpha"/>
      <feGaussianBlur stdDeviation="3" result="blur"/>
      <feFlood flood-opacity="0.204"/>
      <feComposite operator="in" in2="blur"/>
      <feComposite in="SourceGraphic"/>
    </filter>
  </defs>
  <g id="id-card" transform="translate(9 -2)">
    <g class="cls-7" transform="matrix(1, 0, 0, 1, -9, 2)">
      <path id="Path_361-2" data-name="Path 361" class="cls-1" d="M297.3,235.927H17.458A17.456,17.456,0,0,1,0,218.469V25.458A17.456,17.456,0,0,1,17.458,8H297.3a17.456,17.456,0,0,1,17.458,17.458V218.469A17.456,17.456,0,0,1,297.3,235.927Z" transform="translate(9 -2)"/>
    </g>
    <rect id="Rectangle_160" data-name="Rectangle 160" class="cls-2" width="108.537" height="108.537" transform="translate(179.085 100.256)"/>
    <path id="Path_362" data-name="Path 362" class="cls-3" d="M95.561,101.569,81.934,94.607a2.775,2.775,0,0,1-1.52-2.475V87.959c7-3.012,11.016-8.867,12.97-16.188A7.234,7.234,0,0,0,98.5,64.889V61.27a7.226,7.226,0,0,0-3.9-6.377c-1.6-13.605-10.588-19.108-25.045-19.108-.684,0-1.357.027-2.013.081a21.713,21.713,0,0,1-13.969-3.289,18.2,18.2,0,0,1-4.135-3.636.722.722,0,0,0-1.292.526c.147,1.264.358,2.741.678,4.358,1.194,6.008.483,5.128-1.84,10.8a37.353,37.353,0,0,0-2.5,10.295,7.229,7.229,0,0,0-3.875,6.366v3.62a7.239,7.239,0,0,0,5.118,6.881c1.954,7.321,5.975,13.176,12.97,16.188v4.141a2.784,2.784,0,0,1-1.552,2.5l-13.969,6.881A11.866,11.866,0,0,0,37,111.913v4.8a1.636,1.636,0,0,0,.152.657h64.823a1.9,1.9,0,0,0,.147-.673v-4.5A11.875,11.875,0,0,0,95.561,101.569Z" transform="translate(163.793 91.442)"/>
    <rect id="Rectangle_161" data-name="Rectangle 161" class="cls-4" width="314.756" height="43.415" transform="translate(0 35.134)"/>
    <g id="Group_223" data-name="Group 223" transform="translate(21.707 105.683)">
      <path id="Path_363" data-name="Path 363" class="cls-5" d="M58.268,26H9.427a5.427,5.427,0,0,0,0,10.854H58.268a5.427,5.427,0,1,0,0-10.854Z" transform="translate(-4 -26)"/>
      <path id="Path_364" data-name="Path 364" class="cls-5" d="M76.7,31.427A5.422,5.422,0,0,0,71.268,26H22.427a5.427,5.427,0,0,0,0,10.854H71.268A5.422,5.422,0,0,0,76.7,31.427Z" transform="translate(53.549 -26)"/>
      <path id="Path_365" data-name="Path 365" class="cls-5" d="M14.854,31H9.427a5.427,5.427,0,0,0,0,10.854h5.427a5.427,5.427,0,0,0,0-10.854Z" transform="translate(-4 -3.866)"/>
      <path id="Path_366" data-name="Path 366" class="cls-5" d="M25.28,31H14.427a5.427,5.427,0,0,0,0,10.854H25.28A5.427,5.427,0,0,0,25.28,31Z" transform="translate(18.134 -3.866)"/>
      <path id="Path_367" data-name="Path 367" class="cls-5" d="M25.854,31H20.427a5.427,5.427,0,0,0,0,10.854h5.427a5.427,5.427,0,0,0,0-10.854Z" transform="translate(44.695 -3.866)"/>
      <path id="Path_368" data-name="Path 368" class="cls-5" d="M36.28,31H25.427a5.427,5.427,0,0,0,0,10.854H36.28A5.427,5.427,0,0,0,36.28,31Z" transform="translate(66.829 -3.866)"/>
      <path id="Path_369" data-name="Path 369" class="cls-5" d="M27.574,32.518a5.5,5.5,0,0,0,0,7.706,5.5,5.5,0,0,0,7.706,0,5.5,5.5,0,0,0,0-7.706A5.682,5.682,0,0,0,27.574,32.518Z" transform="translate(93.39 -3.811)"/>
    </g>
    <g id="Group_224" data-name="Group 224" transform="translate(24.229 161.457)">
      <path id="Path_370" data-name="Path 370" class="cls-6" d="M38.037,36.943c-11.89,6.187-15.89,18.017-17.344,30.293q-3.37-2.817-6.735-5.644C8.634,57.131.912,64.766,6.284,69.265Q13.9,75.639,21.512,82.023c3.587,3.012,9.1,1.145,9.264-3.837.4-11.76.961-25.739,12.742-31.872C49.726,43.086,44.24,33.719,38.037,36.943Z" transform="translate(-4.465 -36.277)"/>
      <path id="Path_371" data-name="Path 371" class="cls-6" d="M89.72,47.082c-2.3-3.142-4.662-5.769-8.857-6.083-7.907-.6-21.479,10.718-27.091.716a5.461,5.461,0,0,0-7.424-1.948c-7.684,4.716-17.729,11.5-25.81,2.713-4.748-5.161-12.406,2.534-7.674,7.674,10.154,11.033,23.249,7.652,34.77,1.406a22.285,22.285,0,0,0,9.209,5.79c4.933,1.78,22.179-6.621,23.514-4.792C84.429,58.152,93.855,52.747,89.72,47.082Z" transform="translate(26.139 -24.096)"/>
    </g>
  </g>
</svg>
